<?xml version="1.0" standalone="no"?><!DOCTYPE svg PUBLIC "-//W3C//DTD SVG 1.1//EN" "http://www.w3.org/Graphics/SVG/1.1/DTD/svg11.dtd"><svg t="1560603494616" class="icon" style="" viewBox="0 0 1024 1024" version="1.1" xmlns="http://www.w3.org/2000/svg" p-id="903" xmlns:xlink="http://www.w3.org/1999/xlink" width="200" height="200"><defs><style type="text/css"></style></defs><path d="M334.8 768.5h-87.3c-22.1 0-40-17.9-40-40V358.1c0-22.1 17.9-40 40-40h87.3c22.1 0 40 17.9 40 40v370.4c0 22-18 40-40 40z m-67.3-60h47.3V378.1h-47.3v330.4z m498.2 60h-87.3c-22.1 0-40-17.9-40-40V358.1c0-22.1 17.9-40 40-40h87.3c22.1 0 40 17.9 40 40v370.4c0 22-17.9 40-40 40z m-67.2-60h47.3V378.1h-47.3v330.4z m-148.2 56H463c-22.1 0-40-17.9-40-40V184.1c0-22.1 17.9-40 40-40h87.3c22.1 0 40 17.9 40 40v540.4c0 22-18 40-40 40z m-67.3-60h47.3V204.1H483v500.4z m330.7 162.3h-606c-16.6 0-30-13.4-30-30s13.4-30 30-30h606.1c16.6 0 30 13.4 30 30s-13.5 30-30.1 30z" p-id="904"></path></svg>